{
  "accessors": [
    {
      "bufferView": 2,
      "componentType": 5126,
      "count": 20448,
      "max": [
        340.1523742675781,
        5.218387126922607,
        1022.7177124023438
      ],
      "min": [
        -339.603515625,
        -5.349532604217529,
        -1035.5423583984375
      ],
      "type": "VEC3"
    },
    {
      "bufferView": 2,
      "byteOffset": 245376,
      "componentType": 5126,
      "count": 20448,
      "max": [
        0.9999998807907104,
        0.9999998807907104,
        0.9999992847442627
      ],
      "min": [
        -0.9999998807907104,
        -0.9999998807907104,
        -0.9999992847442627
      ],
      "type": "VEC3"
    },
    {
      "bufferView": 1,
      "componentType": 5126,
      "count": 20448,
      "max": [
        4.497592926025391,
        4.543051242828369
      ],
      "min": [
        0.0009933063993230462,
        0.0009933710098266602
      ],
      "type": "VEC2"
    },
    {
      "bufferView": 0,
      "componentType": 5125,
      "count": 37488,
      "type": "SCALAR"
    },
    {
      "bufferView": 2,
      "byteOffset": 490752,
      "componentType": 5126,
      "count": 25644,
      "max": [
        4.641599655151367,
        11.785225868225098,
        3.4629766941070557
      ],
      "min": [
        -4.641599655151367,
        -11.785225868225098,
        -3.636489152908325
      ],
      "type": "VEC3"
    },
    {
      "bufferView": 2,
      "byteOffset": 798480,
      "componentType": 5126,
      "count": 25644,
      "max": [
        1.0,
        1.0,
        1.0
      ],
      "min": [
        -1.0,
        -1.0,
        -1.0
      ],
      "type": "VEC3"
    },
    {
      "bufferView": 1,
      "byteOffset": 163584,
      "componentType": 5126,
      "count": 25644,
      "max": [
        2.017866373062134,
        2.135443687438965
      ],
      "min": [
        2.6469778023975075e-23,
        0.0
      ],
      "type": "VEC2"
    },
    {
      "bufferView": 0,
      "byteOffset": 149952,
      "componentType": 5125,
      "count": 53064,
      "type": "SCALAR"
    }
  ],
  "asset": {
    "extras": {
      "author": "Mehdi Shahsavan (https://sketchfab.com/ahmagh2e)",
      "license": "CC-BY-4.0 (http://creativecommons.org/licenses/by/4.0/)",
      "source": "https://sketchfab.com/3d-models/wooden-bridge-roofed-bridge-cap-24mb-595499915d03451dba8ec36889ad32ef",
      "title": "Wooden bridge roofed bridge cap -24MB"
    },
    "generator": "Sketchfab-16.15.0",
    "version": "2.0"
  },
  "bufferViews": [
    {
      "buffer": 0,
      "byteLength": 362208,
      "name": "floatBufferViews",
      "target": 34963
    },
    {
      "buffer": 0,
      "byteLength": 368736,
      "byteOffset": 362208,
      "byteStride": 8,
      "name": "floatBufferViews",
      "target": 34962
    },
    {
      "buffer": 0,
      "byteLength": 1106208,
      "byteOffset": 730944,
      "byteStride": 12,
      "name": "floatBufferViews",
      "target": 34962
    }
  ],
  "buffers": [
    {
      "byteLength": 1837152,
      "uri": "scene.bin"
    }
  ],
  "images": [
    {
      "uri": "textures/material_baseColor.jpeg"
    },
    {
      "uri": "textures/material_metallicRoughness.png"
    }
  ],
  "materials": [
    {
      "doubleSided": true,
      "name": "material",
      "pbrMetallicRoughness": {
        "baseColorTexture": {
          "index": 0
        },
        "metallicFactor": 0.0,
        "metallicRoughnessTexture": {
          "index": 1
        }
      }
    }
  ],
  "meshes": [
    {
      "name": "floor_all_0",
      "primitives": [
        {
          "attributes": {
            "NORMAL": 1,
            "POSITION": 0,
            "TEXCOORD_0": 2
          },
          "indices": 3,
          "material": 0,
          "mode": 4
        }
      ]
    },
    {
      "name": "01_all_0",
      "primitives": [
        {
          "attributes": {
            "NORMAL": 5,
            "POSITION": 4,
            "TEXCOORD_0": 6
          },
          "indices": 7,
          "material": 0,
          "mode": 4
        }
      ]
    }
  ],
  "nodes": [
    {
      "children": [
        1
      ],
      "matrix": [
        1.0,
        0.0,
        0.0,
        0.0,
        0.0,
        2.220446049250313e-16,
        -1.0,
        0.0,
        0.0,
        1.0,
        2.220446049250313e-16,
        0.0,
        0.0,
        0.0,
        0.0,
        1.0
      ],
      "name": "Sketchfab_model"
    },
    {
      "children": [
        2
      ],
      "matrix": [
        0.009999999776482582,
        0.0,
        0.0,
        0.0,
        0.0,
        0.0,
        0.009999999776482582,
        0.0,
        0.0,
        -0.009999999776482582,
        0.0,
        0.0,
        0.0,
        0.0,
        0.0,
        1.0
      ],
      "name": "54e61b6b556b417dbf357c3c4a98516e.fbx"
    },
    {
      "children": [
        3,
        5
      ],
      "name": "RootNode"
    },
    {
      "children": [
        4
      ],
      "matrix": [
        0.09044588886556237,
        -0.15310846650680654,
        -0.9840616538973828,
        0.0,
        0.014013256191729995,
        0.9882093894939139,
        -0.15246583606490616,
        0.0,
        0.9958027765768798,
        0.0,
        0.09152502478435465,
        0.0,
        -72.59388732910156,
        612.2162475585938,
        3222.608642578125,
        1.0
      ],
      "name": "CINEMA_4D_Editor"
    },
    {
      "name": "Object_4"
    },
    {
      "children": [
        6,
        8
      ],
      "matrix": [
        1.0,
        0.0,
        0.0,
        0.0,
        0.0,
        1.0,
        0.0,
        0.0,
        0.0,
        0.0,
        1.0,
        0.0,
        -1.0430500507354736,
        187.1739959716797,
        0.0,
        1.0
      ],
      "name": "all"
    },
    {
      "children": [
        7
      ],
      "matrix": [
        1.0,
        0.0,
        0.0,
        0.0,
        0.0,
        1.0,
        0.0,
        0.0,
        0.0,
        0.0,
        1.0,
        0.0,
        1.0430500507354736,
        -181.824462890625,
        0.0,
        1.0
      ],
      "name": "floor"
    },
    {
      "mesh": 0,
      "name": "floor_all_0"
    },
    {
      "children": [
        9
      ],
      "matrix": [
        100.0,
        0.0,
        0.0,
        0.0,
        0.0,
        2.220446049250313e-14,
        -100.0,
        0.0,
        0.0,
        100.0,
        2.220446049250313e-14,
        0.0,
        -1.0430500507354736,
        181.824462890625,
        0.0,
        1.0
      ],
      "name": "01"
    },
    {
      "mesh": 1,
      "name": "01_all_0"
    }
  ],
  "samplers": [
    {
      "magFilter": 9729,
      "minFilter": 9987,
      "wrapS": 10497,
      "wrapT": 10497
    }
  ],
  "scene": 0,
  "scenes": [
    {
      "name": "Sketchfab_Scene",
      "nodes": [
        0
      ]
    }
  ],
  "textures": [
    {
      "sampler": 0,
      "source": 0
    },
    {
      "sampler": 0,
      "source": 1
    }
  ]
}
